<mxfile host="65bd71144e">
    <diagram id="nwCqdlOOkmA4SMYe02t4" name="Page-1">
        <mxGraphModel dx="1063" dy="781" grid="1" gridSize="6" guides="1" tooltips="1" connect="1" arrows="1" fold="1" page="1" pageScale="1" pageWidth="560" pageHeight="1200" math="0" shadow="0">
            <root>
                <mxCell id="0"/>
                <mxCell id="1" parent="0"/>
                <mxCell id="2" value="" style="rounded=0;whiteSpace=wrap;html=1;fillColor=#60a917;fontColor=#ffffff;strokeColor=#000000;movable=1;resizable=1;rotatable=1;deletable=1;editable=1;connectable=1;" parent="1" vertex="1">
                    <mxGeometry width="560" height="240" as="geometry"/>
                </mxCell>
                <mxCell id="7" value="" style="rounded=0;whiteSpace=wrap;html=1;fillColor=#e3c800;fontColor=#000000;strokeColor=#000000;movable=1;resizable=1;rotatable=1;deletable=1;editable=1;connectable=1;" parent="1" vertex="1">
                    <mxGeometry y="720" width="560" height="240" as="geometry"/>
                </mxCell>
                <mxCell id="8" value="" style="rounded=0;whiteSpace=wrap;html=1;fillColor=#e51400;fontColor=#ffffff;strokeColor=#000000;movable=1;resizable=1;rotatable=1;deletable=1;editable=1;connectable=1;" parent="1" vertex="1">
                    <mxGeometry y="480" width="560" height="240" as="geometry"/>
                </mxCell>
                <mxCell id="9" value="" style="rounded=0;whiteSpace=wrap;html=1;fillColor=#0050ef;fontColor=#ffffff;strokeColor=#000000;movable=1;resizable=1;rotatable=1;deletable=1;editable=1;connectable=1;" parent="1" vertex="1">
                    <mxGeometry y="240" width="560" height="240" as="geometry"/>
                </mxCell>
                <mxCell id="10" value="" style="rounded=0;whiteSpace=wrap;html=1;fillColor=#6a00ff;fontColor=#ffffff;strokeColor=#000000;movable=1;resizable=1;rotatable=1;deletable=1;editable=1;connectable=1;" parent="1" vertex="1">
                    <mxGeometry y="960" width="560" height="240" as="geometry"/>
                </mxCell>
                <mxCell id="48" value="&lt;p style=&quot;line-height: 100%;&quot;&gt;Privilegium&lt;/p&gt;" style="rounded=1;whiteSpace=wrap;html=1;strokeColor=#000000;fontColor=#000000;fillColor=#FFFFFF;verticalAlign=top;spacingTop=-10;movable=1;resizable=1;rotatable=1;deletable=1;editable=1;connectable=1;" parent="1" vertex="1">
                    <mxGeometry x="5" y="161.5" width="170" height="70" as="geometry"/>
                </mxCell>
                <mxCell id="16" value="" style="whiteSpace=wrap;html=1;aspect=fixed;fillColor=#f9f7ed;strokeColor=#000000;movable=1;resizable=1;rotatable=1;deletable=1;editable=1;connectable=1;" parent="1" vertex="1">
                    <mxGeometry x="15" y="191.5" width="30" height="30" as="geometry"/>
                </mxCell>
                <mxCell id="17" value="" style="whiteSpace=wrap;html=1;aspect=fixed;fillColor=#ffcd28;strokeColor=#000000;gradientColor=#ffa500;movable=1;resizable=1;rotatable=1;deletable=1;editable=1;connectable=1;" parent="1" vertex="1">
                    <mxGeometry x="55" y="191.5" width="30" height="30" as="geometry"/>
                </mxCell>
                <mxCell id="18" value="" style="whiteSpace=wrap;html=1;aspect=fixed;fillColor=#e6d0de;strokeColor=#000000;gradientColor=#d5739d;movable=1;resizable=1;rotatable=1;deletable=1;editable=1;connectable=1;" parent="1" vertex="1">
                    <mxGeometry x="95" y="191.5" width="30" height="30" as="geometry"/>
                </mxCell>
                <mxCell id="19" value="" style="whiteSpace=wrap;html=1;aspect=fixed;rotation=90;strokeColor=#000000;movable=1;resizable=1;rotatable=1;deletable=1;editable=1;connectable=1;" parent="1" vertex="1">
                    <mxGeometry x="135" y="191.5" width="30" height="30" as="geometry"/>
                </mxCell>
                <mxCell id="52" value="" style="ellipse;whiteSpace=wrap;html=1;aspect=fixed;strokeColor=#000000;fontColor=#000000;fillColor=#858585;movable=1;resizable=1;rotatable=1;deletable=1;editable=1;connectable=1;" parent="1" vertex="1">
                    <mxGeometry x="220" y="3.5" width="80" height="80" as="geometry"/>
                </mxCell>
                <mxCell id="53" value="&lt;p style=&quot;line-height: 100%;&quot;&gt;Liber&lt;/p&gt;" style="rounded=1;whiteSpace=wrap;html=1;strokeColor=#000000;fontColor=#000000;fillColor=#FFFFFF;verticalAlign=top;spacingTop=-10;movable=1;resizable=1;rotatable=1;deletable=1;editable=1;connectable=1;" parent="1" vertex="1">
                    <mxGeometry x="185" y="161.5" width="90" height="70" as="geometry"/>
                </mxCell>
                <mxCell id="31" value="&lt;font color=&quot;#000000&quot;&gt;2&lt;/font&gt;" style="ellipse;whiteSpace=wrap;html=1;aspect=fixed;fillColor=#f9f7ed;strokeColor=#36393d;movable=1;resizable=1;rotatable=1;deletable=1;editable=1;connectable=1;" parent="1" vertex="1">
                    <mxGeometry x="189" y="185.5" width="40" height="40" as="geometry"/>
                </mxCell>
                <mxCell id="32" value="&lt;font color=&quot;#000000&quot;&gt;3&lt;/font&gt;" style="ellipse;whiteSpace=wrap;html=1;aspect=fixed;fillColor=#f9f7ed;strokeColor=#36393d;movable=1;resizable=1;rotatable=1;deletable=1;editable=1;connectable=1;" parent="1" vertex="1">
                    <mxGeometry x="232" y="185.5" width="40" height="40" as="geometry"/>
                </mxCell>
                <mxCell id="54" value="&lt;p style=&quot;line-height: 100%;&quot;&gt;Sophiae&lt;/p&gt;" style="rounded=1;whiteSpace=wrap;html=1;strokeColor=#000000;fontColor=#000000;fillColor=#FFFFFF;verticalAlign=top;spacingTop=-10;movable=1;resizable=1;rotatable=1;deletable=1;editable=1;connectable=1;" parent="1" vertex="1">
                    <mxGeometry x="275" y="161.5" width="90" height="70" as="geometry"/>
                </mxCell>
                <mxCell id="33" value="&lt;font color=&quot;#000000&quot;&gt;4&lt;/font&gt;" style="ellipse;whiteSpace=wrap;html=1;aspect=fixed;fillColor=#f9f7ed;strokeColor=#36393d;movable=1;resizable=1;rotatable=1;deletable=1;editable=1;connectable=1;" parent="1" vertex="1">
                    <mxGeometry x="278" y="185.5" width="40" height="40" as="geometry"/>
                </mxCell>
                <mxCell id="34" value="&lt;font color=&quot;#000000&quot;&gt;5&lt;/font&gt;" style="ellipse;whiteSpace=wrap;html=1;aspect=fixed;fillColor=#f9f7ed;strokeColor=#36393d;movable=1;resizable=1;rotatable=1;deletable=1;editable=1;connectable=1;" parent="1" vertex="1">
                    <mxGeometry x="321" y="185.5" width="40" height="40" as="geometry"/>
                </mxCell>
                <mxCell id="55" value="&lt;p style=&quot;line-height: 100%;&quot;&gt;Income&lt;/p&gt;&lt;p style=&quot;line-height: 100%;&quot;&gt;&lt;br&gt;&lt;/p&gt;" style="rounded=1;whiteSpace=wrap;html=1;strokeColor=#000000;fontColor=#000000;fillColor=#FFFFFF;verticalAlign=top;spacingTop=-10;movable=1;resizable=1;rotatable=1;deletable=1;editable=1;connectable=1;" parent="1" vertex="1">
                    <mxGeometry x="385" y="161.5" width="170" height="70" as="geometry"/>
                </mxCell>
                <mxCell id="41" value="&lt;font color=&quot;#000000&quot;&gt;3&lt;/font&gt;" style="rhombus;whiteSpace=wrap;html=1;fillColor=#f9f7ed;strokeColor=#36393d;movable=1;resizable=1;rotatable=1;deletable=1;editable=1;connectable=1;" parent="1" vertex="1">
                    <mxGeometry x="390" y="184.5" width="40" height="40" as="geometry"/>
                </mxCell>
                <mxCell id="42" value="&lt;font color=&quot;#000000&quot;&gt;5&lt;/font&gt;" style="rhombus;whiteSpace=wrap;html=1;fillColor=#f9f7ed;strokeColor=#36393d;movable=1;resizable=1;rotatable=1;deletable=1;editable=1;connectable=1;" parent="1" vertex="1">
                    <mxGeometry x="430" y="184.5" width="40" height="40" as="geometry"/>
                </mxCell>
                <mxCell id="43" value="&lt;font color=&quot;#000000&quot;&gt;7&lt;/font&gt;" style="rhombus;whiteSpace=wrap;html=1;fillColor=#f9f7ed;strokeColor=#36393d;movable=1;resizable=1;rotatable=1;deletable=1;editable=1;connectable=1;" parent="1" vertex="1">
                    <mxGeometry x="470" y="184.5" width="40" height="40" as="geometry"/>
                </mxCell>
                <mxCell id="44" value="&lt;font color=&quot;#000000&quot;&gt;E&lt;/font&gt;" style="rhombus;whiteSpace=wrap;html=1;fillColor=#f9f7ed;strokeColor=#36393d;movable=1;resizable=1;rotatable=1;deletable=1;editable=1;connectable=1;" parent="1" vertex="1">
                    <mxGeometry x="510" y="184.5" width="40" height="40" as="geometry"/>
                </mxCell>
                <mxCell id="56" value="" style="ellipse;whiteSpace=wrap;html=1;aspect=fixed;strokeColor=#000000;fontColor=#000000;fillColor=#858585;movable=1;resizable=1;rotatable=1;deletable=1;editable=1;connectable=1;" parent="1" vertex="1">
                    <mxGeometry x="227" y="10.5" width="66" height="66" as="geometry"/>
                </mxCell>
                <mxCell id="57" value="&lt;p style=&quot;line-height: 100%;&quot;&gt;Actiones&lt;/p&gt;" style="rounded=1;whiteSpace=wrap;html=1;strokeColor=#000000;fontColor=#000000;fillColor=#FFFFFF;verticalAlign=top;spacingTop=-10;movable=1;resizable=1;rotatable=1;deletable=1;editable=1;connectable=1;" parent="1" vertex="1">
                    <mxGeometry x="305" y="10.5" width="250" height="70" as="geometry"/>
                </mxCell>
                <mxCell id="35" value="&lt;p style=&quot;line-height: 100%;&quot;&gt;&lt;font color=&quot;#050505&quot;&gt;2&lt;/font&gt;&lt;/p&gt;" style="rhombus;whiteSpace=wrap;html=1;fillColor=#f9f7ed;strokeColor=#36393d;movable=1;resizable=1;rotatable=1;deletable=1;editable=1;connectable=1;" parent="1" vertex="1">
                    <mxGeometry x="310" y="31.5" width="40" height="40" as="geometry"/>
                </mxCell>
                <mxCell id="36" value="&lt;font color=&quot;#000000&quot;&gt;3&lt;/font&gt;" style="rhombus;whiteSpace=wrap;html=1;fillColor=#f9f7ed;strokeColor=#36393d;movable=1;resizable=1;rotatable=1;deletable=1;editable=1;connectable=1;" parent="1" vertex="1">
                    <mxGeometry x="350" y="31.5" width="40" height="40" as="geometry"/>
                </mxCell>
                <mxCell id="37" value="&lt;font color=&quot;#000000&quot;&gt;3&lt;/font&gt;" style="rhombus;whiteSpace=wrap;html=1;fillColor=#f9f7ed;strokeColor=#36393d;movable=1;resizable=1;rotatable=1;deletable=1;editable=1;connectable=1;" parent="1" vertex="1">
                    <mxGeometry x="390" y="31.5" width="40" height="40" as="geometry"/>
                </mxCell>
                <mxCell id="38" value="&lt;font color=&quot;#000000&quot;&gt;4&lt;/font&gt;" style="rhombus;whiteSpace=wrap;html=1;fillColor=#f9f7ed;strokeColor=#36393d;movable=1;resizable=1;rotatable=1;deletable=1;editable=1;connectable=1;" parent="1" vertex="1">
                    <mxGeometry x="430" y="31.5" width="40" height="40" as="geometry"/>
                </mxCell>
                <mxCell id="39" value="&lt;font color=&quot;#000000&quot;&gt;4&lt;/font&gt;" style="rhombus;whiteSpace=wrap;html=1;fillColor=#f9f7ed;strokeColor=#36393d;movable=1;resizable=1;rotatable=1;deletable=1;editable=1;connectable=1;" parent="1" vertex="1">
                    <mxGeometry x="470" y="31.5" width="40" height="40" as="geometry"/>
                </mxCell>
                <mxCell id="40" value="&lt;font color=&quot;#000000&quot;&gt;5&lt;/font&gt;" style="rhombus;whiteSpace=wrap;html=1;fillColor=#f9f7ed;strokeColor=#36393d;movable=1;resizable=1;rotatable=1;deletable=1;editable=1;connectable=1;" parent="1" vertex="1">
                    <mxGeometry x="510" y="31.5" width="40" height="40" as="geometry"/>
                </mxCell>
                <mxCell id="58" value="&lt;p style=&quot;line-height: 100%;&quot;&gt;Keys&lt;/p&gt;" style="rounded=1;whiteSpace=wrap;html=1;strokeColor=#000000;fontColor=#000000;fillColor=#FFFFFF;verticalAlign=top;spacingTop=-10;movable=1;resizable=1;rotatable=1;deletable=1;editable=1;connectable=1;" parent="1" vertex="1">
                    <mxGeometry x="5" y="8.5" width="210" height="70" as="geometry"/>
                </mxCell>
                <mxCell id="11" value="&lt;p style=&quot;line-height: 100%;&quot;&gt;&lt;font color=&quot;#050505&quot;&gt;1&lt;/font&gt;&lt;/p&gt;" style="rhombus;whiteSpace=wrap;html=1;fillColor=#f9f7ed;strokeColor=#36393d;movable=1;resizable=1;rotatable=1;deletable=1;editable=1;connectable=1;" parent="1" vertex="1">
                    <mxGeometry x="10" y="31.5" width="40" height="40" as="geometry"/>
                </mxCell>
                <mxCell id="12" value="&lt;font color=&quot;#000000&quot;&gt;2&lt;/font&gt;" style="rhombus;whiteSpace=wrap;html=1;fillColor=#f9f7ed;strokeColor=#36393d;movable=1;resizable=1;rotatable=1;deletable=1;editable=1;connectable=1;" parent="1" vertex="1">
                    <mxGeometry x="50" y="31.5" width="40" height="40" as="geometry"/>
                </mxCell>
                <mxCell id="13" value="&lt;font color=&quot;#000000&quot;&gt;2&lt;/font&gt;" style="rhombus;whiteSpace=wrap;html=1;fillColor=#f9f7ed;strokeColor=#36393d;movable=1;resizable=1;rotatable=1;deletable=1;editable=1;connectable=1;" parent="1" vertex="1">
                    <mxGeometry x="90" y="31.5" width="40" height="40" as="geometry"/>
                </mxCell>
                <mxCell id="14" value="&lt;font color=&quot;#000000&quot;&gt;3&lt;/font&gt;" style="rhombus;whiteSpace=wrap;html=1;fillColor=#f9f7ed;strokeColor=#36393d;movable=1;resizable=1;rotatable=1;deletable=1;editable=1;connectable=1;" parent="1" vertex="1">
                    <mxGeometry x="130" y="31.5" width="40" height="40" as="geometry"/>
                </mxCell>
                <mxCell id="15" value="&lt;font color=&quot;#000000&quot;&gt;4&lt;/font&gt;" style="rhombus;whiteSpace=wrap;html=1;fillColor=#f9f7ed;strokeColor=#36393d;movable=1;resizable=1;rotatable=1;deletable=1;editable=1;connectable=1;" parent="1" vertex="1">
                    <mxGeometry x="170" y="31.5" width="40" height="40" as="geometry"/>
                </mxCell>
                <mxCell id="59" value="&lt;p style=&quot;line-height: 100%;&quot;&gt;&lt;font style=&quot;font-size: 16px;&quot;&gt;General Stock:&lt;/font&gt;&lt;/p&gt;" style="rounded=1;whiteSpace=wrap;html=1;strokeColor=#000000;fontColor=#000000;fillColor=#FFFFFF;verticalAlign=top;spacingTop=0;align=left;spacingRight=0;spacingLeft=18;movable=1;resizable=1;rotatable=1;deletable=1;editable=1;connectable=1;" parent="1" vertex="1">
                    <mxGeometry x="5" y="96.5" width="210" height="50" as="geometry"/>
                </mxCell>
                <mxCell id="60" value="&lt;p style=&quot;line-height: 100%;&quot;&gt;&lt;font style=&quot;font-size: 16px;&quot;&gt;Personal Supply:&amp;nbsp;&lt;/font&gt;&lt;/p&gt;" style="rounded=1;whiteSpace=wrap;html=1;strokeColor=#000000;fontColor=#000000;fillColor=#FFFFFF;verticalAlign=top;spacingTop=0;align=left;spacingRight=0;spacingLeft=18;movable=1;resizable=1;rotatable=1;deletable=1;editable=1;connectable=1;" parent="1" vertex="1">
                    <mxGeometry x="345" y="96.5" width="210" height="50" as="geometry"/>
                </mxCell>
                <mxCell id="181" value="&lt;p style=&quot;line-height: 100%;&quot;&gt;Privilegium&lt;/p&gt;" style="rounded=1;whiteSpace=wrap;html=1;strokeColor=#000000;fontColor=#000000;fillColor=#FFFFFF;verticalAlign=top;spacingTop=-10;movable=1;resizable=1;rotatable=1;deletable=1;editable=1;connectable=1;" vertex="1" parent="1">
                    <mxGeometry x="5" y="404" width="170" height="70" as="geometry"/>
                </mxCell>
                <mxCell id="182" value="" style="whiteSpace=wrap;html=1;aspect=fixed;fillColor=#f9f7ed;strokeColor=#000000;movable=1;resizable=1;rotatable=1;deletable=1;editable=1;connectable=1;" vertex="1" parent="1">
                    <mxGeometry x="15" y="434" width="30" height="30" as="geometry"/>
                </mxCell>
                <mxCell id="183" value="" style="whiteSpace=wrap;html=1;aspect=fixed;fillColor=#ffcd28;strokeColor=#000000;gradientColor=#ffa500;movable=1;resizable=1;rotatable=1;deletable=1;editable=1;connectable=1;" vertex="1" parent="1">
                    <mxGeometry x="55" y="434" width="30" height="30" as="geometry"/>
                </mxCell>
                <mxCell id="184" value="" style="whiteSpace=wrap;html=1;aspect=fixed;fillColor=#e6d0de;strokeColor=#000000;gradientColor=#d5739d;movable=1;resizable=1;rotatable=1;deletable=1;editable=1;connectable=1;" vertex="1" parent="1">
                    <mxGeometry x="95" y="434" width="30" height="30" as="geometry"/>
                </mxCell>
                <mxCell id="185" value="" style="whiteSpace=wrap;html=1;aspect=fixed;rotation=90;strokeColor=#000000;movable=1;resizable=1;rotatable=1;deletable=1;editable=1;connectable=1;" vertex="1" parent="1">
                    <mxGeometry x="135" y="434" width="30" height="30" as="geometry"/>
                </mxCell>
                <mxCell id="186" value="" style="ellipse;whiteSpace=wrap;html=1;aspect=fixed;strokeColor=#000000;fontColor=#000000;fillColor=#858585;movable=1;resizable=1;rotatable=1;deletable=1;editable=1;connectable=1;" vertex="1" parent="1">
                    <mxGeometry x="220" y="246" width="80" height="80" as="geometry"/>
                </mxCell>
                <mxCell id="187" value="&lt;p style=&quot;line-height: 100%;&quot;&gt;Liber&lt;/p&gt;" style="rounded=1;whiteSpace=wrap;html=1;strokeColor=#000000;fontColor=#000000;fillColor=#FFFFFF;verticalAlign=top;spacingTop=-10;movable=1;resizable=1;rotatable=1;deletable=1;editable=1;connectable=1;" vertex="1" parent="1">
                    <mxGeometry x="185" y="404" width="90" height="70" as="geometry"/>
                </mxCell>
                <mxCell id="188" value="&lt;font color=&quot;#000000&quot;&gt;2&lt;/font&gt;" style="ellipse;whiteSpace=wrap;html=1;aspect=fixed;fillColor=#f9f7ed;strokeColor=#36393d;movable=1;resizable=1;rotatable=1;deletable=1;editable=1;connectable=1;" vertex="1" parent="1">
                    <mxGeometry x="189" y="428" width="40" height="40" as="geometry"/>
                </mxCell>
                <mxCell id="189" value="&lt;font color=&quot;#000000&quot;&gt;3&lt;/font&gt;" style="ellipse;whiteSpace=wrap;html=1;aspect=fixed;fillColor=#f9f7ed;strokeColor=#36393d;movable=1;resizable=1;rotatable=1;deletable=1;editable=1;connectable=1;" vertex="1" parent="1">
                    <mxGeometry x="232" y="428" width="40" height="40" as="geometry"/>
                </mxCell>
                <mxCell id="190" value="&lt;p style=&quot;line-height: 100%;&quot;&gt;Sophiae&lt;/p&gt;" style="rounded=1;whiteSpace=wrap;html=1;strokeColor=#000000;fontColor=#000000;fillColor=#FFFFFF;verticalAlign=top;spacingTop=-10;movable=1;resizable=1;rotatable=1;deletable=1;editable=1;connectable=1;" vertex="1" parent="1">
                    <mxGeometry x="275" y="404" width="90" height="70" as="geometry"/>
                </mxCell>
                <mxCell id="191" value="&lt;font color=&quot;#000000&quot;&gt;4&lt;/font&gt;" style="ellipse;whiteSpace=wrap;html=1;aspect=fixed;fillColor=#f9f7ed;strokeColor=#36393d;movable=1;resizable=1;rotatable=1;deletable=1;editable=1;connectable=1;" vertex="1" parent="1">
                    <mxGeometry x="278" y="428" width="40" height="40" as="geometry"/>
                </mxCell>
                <mxCell id="192" value="&lt;font color=&quot;#000000&quot;&gt;5&lt;/font&gt;" style="ellipse;whiteSpace=wrap;html=1;aspect=fixed;fillColor=#f9f7ed;strokeColor=#36393d;movable=1;resizable=1;rotatable=1;deletable=1;editable=1;connectable=1;" vertex="1" parent="1">
                    <mxGeometry x="321" y="428" width="40" height="40" as="geometry"/>
                </mxCell>
                <mxCell id="193" value="&lt;p style=&quot;line-height: 100%;&quot;&gt;Income&lt;/p&gt;&lt;p style=&quot;line-height: 100%;&quot;&gt;&lt;br&gt;&lt;/p&gt;" style="rounded=1;whiteSpace=wrap;html=1;strokeColor=#000000;fontColor=#000000;fillColor=#FFFFFF;verticalAlign=top;spacingTop=-10;movable=1;resizable=1;rotatable=1;deletable=1;editable=1;connectable=1;" vertex="1" parent="1">
                    <mxGeometry x="385" y="404" width="170" height="70" as="geometry"/>
                </mxCell>
                <mxCell id="194" value="&lt;font color=&quot;#000000&quot;&gt;3&lt;/font&gt;" style="rhombus;whiteSpace=wrap;html=1;fillColor=#f9f7ed;strokeColor=#36393d;movable=1;resizable=1;rotatable=1;deletable=1;editable=1;connectable=1;" vertex="1" parent="1">
                    <mxGeometry x="390" y="427" width="40" height="40" as="geometry"/>
                </mxCell>
                <mxCell id="195" value="&lt;font color=&quot;#000000&quot;&gt;5&lt;/font&gt;" style="rhombus;whiteSpace=wrap;html=1;fillColor=#f9f7ed;strokeColor=#36393d;movable=1;resizable=1;rotatable=1;deletable=1;editable=1;connectable=1;" vertex="1" parent="1">
                    <mxGeometry x="430" y="427" width="40" height="40" as="geometry"/>
                </mxCell>
                <mxCell id="196" value="&lt;font color=&quot;#000000&quot;&gt;7&lt;/font&gt;" style="rhombus;whiteSpace=wrap;html=1;fillColor=#f9f7ed;strokeColor=#36393d;movable=1;resizable=1;rotatable=1;deletable=1;editable=1;connectable=1;" vertex="1" parent="1">
                    <mxGeometry x="470" y="427" width="40" height="40" as="geometry"/>
                </mxCell>
                <mxCell id="197" value="&lt;font color=&quot;#000000&quot;&gt;E&lt;/font&gt;" style="rhombus;whiteSpace=wrap;html=1;fillColor=#f9f7ed;strokeColor=#36393d;movable=1;resizable=1;rotatable=1;deletable=1;editable=1;connectable=1;" vertex="1" parent="1">
                    <mxGeometry x="510" y="427" width="40" height="40" as="geometry"/>
                </mxCell>
                <mxCell id="198" value="" style="ellipse;whiteSpace=wrap;html=1;aspect=fixed;strokeColor=#000000;fontColor=#000000;fillColor=#858585;movable=1;resizable=1;rotatable=1;deletable=1;editable=1;connectable=1;" vertex="1" parent="1">
                    <mxGeometry x="227" y="253" width="66" height="66" as="geometry"/>
                </mxCell>
                <mxCell id="199" value="&lt;p style=&quot;line-height: 100%;&quot;&gt;Actiones&lt;/p&gt;" style="rounded=1;whiteSpace=wrap;html=1;strokeColor=#000000;fontColor=#000000;fillColor=#FFFFFF;verticalAlign=top;spacingTop=-10;movable=1;resizable=1;rotatable=1;deletable=1;editable=1;connectable=1;" vertex="1" parent="1">
                    <mxGeometry x="305" y="253" width="250" height="70" as="geometry"/>
                </mxCell>
                <mxCell id="200" value="&lt;p style=&quot;line-height: 100%;&quot;&gt;&lt;font color=&quot;#050505&quot;&gt;2&lt;/font&gt;&lt;/p&gt;" style="rhombus;whiteSpace=wrap;html=1;fillColor=#f9f7ed;strokeColor=#36393d;movable=1;resizable=1;rotatable=1;deletable=1;editable=1;connectable=1;" vertex="1" parent="1">
                    <mxGeometry x="310" y="274" width="40" height="40" as="geometry"/>
                </mxCell>
                <mxCell id="201" value="&lt;font color=&quot;#000000&quot;&gt;3&lt;/font&gt;" style="rhombus;whiteSpace=wrap;html=1;fillColor=#f9f7ed;strokeColor=#36393d;movable=1;resizable=1;rotatable=1;deletable=1;editable=1;connectable=1;" vertex="1" parent="1">
                    <mxGeometry x="350" y="274" width="40" height="40" as="geometry"/>
                </mxCell>
                <mxCell id="202" value="&lt;font color=&quot;#000000&quot;&gt;3&lt;/font&gt;" style="rhombus;whiteSpace=wrap;html=1;fillColor=#f9f7ed;strokeColor=#36393d;movable=1;resizable=1;rotatable=1;deletable=1;editable=1;connectable=1;" vertex="1" parent="1">
                    <mxGeometry x="390" y="274" width="40" height="40" as="geometry"/>
                </mxCell>
                <mxCell id="203" value="&lt;font color=&quot;#000000&quot;&gt;4&lt;/font&gt;" style="rhombus;whiteSpace=wrap;html=1;fillColor=#f9f7ed;strokeColor=#36393d;movable=1;resizable=1;rotatable=1;deletable=1;editable=1;connectable=1;" vertex="1" parent="1">
                    <mxGeometry x="430" y="274" width="40" height="40" as="geometry"/>
                </mxCell>
                <mxCell id="204" value="&lt;font color=&quot;#000000&quot;&gt;4&lt;/font&gt;" style="rhombus;whiteSpace=wrap;html=1;fillColor=#f9f7ed;strokeColor=#36393d;movable=1;resizable=1;rotatable=1;deletable=1;editable=1;connectable=1;" vertex="1" parent="1">
                    <mxGeometry x="470" y="274" width="40" height="40" as="geometry"/>
                </mxCell>
                <mxCell id="205" value="&lt;font color=&quot;#000000&quot;&gt;5&lt;/font&gt;" style="rhombus;whiteSpace=wrap;html=1;fillColor=#f9f7ed;strokeColor=#36393d;movable=1;resizable=1;rotatable=1;deletable=1;editable=1;connectable=1;" vertex="1" parent="1">
                    <mxGeometry x="510" y="274" width="40" height="40" as="geometry"/>
                </mxCell>
                <mxCell id="206" value="&lt;p style=&quot;line-height: 100%;&quot;&gt;Keys&lt;/p&gt;" style="rounded=1;whiteSpace=wrap;html=1;strokeColor=#000000;fontColor=#000000;fillColor=#FFFFFF;verticalAlign=top;spacingTop=-10;movable=1;resizable=1;rotatable=1;deletable=1;editable=1;connectable=1;" vertex="1" parent="1">
                    <mxGeometry x="5" y="251" width="210" height="70" as="geometry"/>
                </mxCell>
                <mxCell id="207" value="&lt;p style=&quot;line-height: 100%;&quot;&gt;&lt;font color=&quot;#050505&quot;&gt;1&lt;/font&gt;&lt;/p&gt;" style="rhombus;whiteSpace=wrap;html=1;fillColor=#f9f7ed;strokeColor=#36393d;movable=1;resizable=1;rotatable=1;deletable=1;editable=1;connectable=1;" vertex="1" parent="1">
                    <mxGeometry x="10" y="274" width="40" height="40" as="geometry"/>
                </mxCell>
                <mxCell id="208" value="&lt;font color=&quot;#000000&quot;&gt;2&lt;/font&gt;" style="rhombus;whiteSpace=wrap;html=1;fillColor=#f9f7ed;strokeColor=#36393d;movable=1;resizable=1;rotatable=1;deletable=1;editable=1;connectable=1;" vertex="1" parent="1">
                    <mxGeometry x="50" y="274" width="40" height="40" as="geometry"/>
                </mxCell>
                <mxCell id="209" value="&lt;font color=&quot;#000000&quot;&gt;2&lt;/font&gt;" style="rhombus;whiteSpace=wrap;html=1;fillColor=#f9f7ed;strokeColor=#36393d;movable=1;resizable=1;rotatable=1;deletable=1;editable=1;connectable=1;" vertex="1" parent="1">
                    <mxGeometry x="90" y="274" width="40" height="40" as="geometry"/>
                </mxCell>
                <mxCell id="210" value="&lt;font color=&quot;#000000&quot;&gt;3&lt;/font&gt;" style="rhombus;whiteSpace=wrap;html=1;fillColor=#f9f7ed;strokeColor=#36393d;movable=1;resizable=1;rotatable=1;deletable=1;editable=1;connectable=1;" vertex="1" parent="1">
                    <mxGeometry x="130" y="274" width="40" height="40" as="geometry"/>
                </mxCell>
                <mxCell id="211" value="&lt;font color=&quot;#000000&quot;&gt;4&lt;/font&gt;" style="rhombus;whiteSpace=wrap;html=1;fillColor=#f9f7ed;strokeColor=#36393d;movable=1;resizable=1;rotatable=1;deletable=1;editable=1;connectable=1;" vertex="1" parent="1">
                    <mxGeometry x="170" y="274" width="40" height="40" as="geometry"/>
                </mxCell>
                <mxCell id="212" value="&lt;p style=&quot;line-height: 100%;&quot;&gt;&lt;font style=&quot;font-size: 16px;&quot;&gt;General Stock:&lt;/font&gt;&lt;/p&gt;" style="rounded=1;whiteSpace=wrap;html=1;strokeColor=#000000;fontColor=#000000;fillColor=#FFFFFF;verticalAlign=top;spacingTop=0;align=left;spacingRight=0;spacingLeft=18;movable=1;resizable=1;rotatable=1;deletable=1;editable=1;connectable=1;" vertex="1" parent="1">
                    <mxGeometry x="5" y="339" width="210" height="50" as="geometry"/>
                </mxCell>
                <mxCell id="213" value="&lt;p style=&quot;line-height: 100%;&quot;&gt;&lt;font style=&quot;font-size: 16px;&quot;&gt;Personal Supply:&amp;nbsp;&lt;/font&gt;&lt;/p&gt;" style="rounded=1;whiteSpace=wrap;html=1;strokeColor=#000000;fontColor=#000000;fillColor=#FFFFFF;verticalAlign=top;spacingTop=0;align=left;spacingRight=0;spacingLeft=18;movable=1;resizable=1;rotatable=1;deletable=1;editable=1;connectable=1;" vertex="1" parent="1">
                    <mxGeometry x="345" y="339" width="210" height="50" as="geometry"/>
                </mxCell>
                <mxCell id="214" value="&lt;p style=&quot;line-height: 100%;&quot;&gt;Privilegium&lt;/p&gt;" style="rounded=1;whiteSpace=wrap;html=1;strokeColor=#000000;fontColor=#000000;fillColor=#FFFFFF;verticalAlign=top;spacingTop=-10;movable=1;resizable=1;rotatable=1;deletable=1;editable=1;connectable=1;" vertex="1" parent="1">
                    <mxGeometry x="5" y="639" width="170" height="70" as="geometry"/>
                </mxCell>
                <mxCell id="215" value="" style="whiteSpace=wrap;html=1;aspect=fixed;fillColor=#f9f7ed;strokeColor=#000000;movable=1;resizable=1;rotatable=1;deletable=1;editable=1;connectable=1;" vertex="1" parent="1">
                    <mxGeometry x="15" y="669" width="30" height="30" as="geometry"/>
                </mxCell>
                <mxCell id="216" value="" style="whiteSpace=wrap;html=1;aspect=fixed;fillColor=#ffcd28;strokeColor=#000000;gradientColor=#ffa500;movable=1;resizable=1;rotatable=1;deletable=1;editable=1;connectable=1;" vertex="1" parent="1">
                    <mxGeometry x="55" y="669" width="30" height="30" as="geometry"/>
                </mxCell>
                <mxCell id="217" value="" style="whiteSpace=wrap;html=1;aspect=fixed;fillColor=#e6d0de;strokeColor=#000000;gradientColor=#d5739d;movable=1;resizable=1;rotatable=1;deletable=1;editable=1;connectable=1;" vertex="1" parent="1">
                    <mxGeometry x="95" y="669" width="30" height="30" as="geometry"/>
                </mxCell>
                <mxCell id="218" value="" style="whiteSpace=wrap;html=1;aspect=fixed;rotation=90;strokeColor=#000000;movable=1;resizable=1;rotatable=1;deletable=1;editable=1;connectable=1;" vertex="1" parent="1">
                    <mxGeometry x="135" y="669" width="30" height="30" as="geometry"/>
                </mxCell>
                <mxCell id="219" value="" style="ellipse;whiteSpace=wrap;html=1;aspect=fixed;strokeColor=#000000;fontColor=#000000;fillColor=#858585;movable=1;resizable=1;rotatable=1;deletable=1;editable=1;connectable=1;" vertex="1" parent="1">
                    <mxGeometry x="220" y="486" width="80" height="80" as="geometry"/>
                </mxCell>
                <mxCell id="220" value="&lt;p style=&quot;line-height: 100%;&quot;&gt;Liber&lt;/p&gt;" style="rounded=1;whiteSpace=wrap;html=1;strokeColor=#000000;fontColor=#000000;fillColor=#FFFFFF;verticalAlign=top;spacingTop=-10;movable=1;resizable=1;rotatable=1;deletable=1;editable=1;connectable=1;" vertex="1" parent="1">
                    <mxGeometry x="185" y="639" width="90" height="70" as="geometry"/>
                </mxCell>
                <mxCell id="221" value="&lt;font color=&quot;#000000&quot;&gt;2&lt;/font&gt;" style="ellipse;whiteSpace=wrap;html=1;aspect=fixed;fillColor=#f9f7ed;strokeColor=#36393d;movable=1;resizable=1;rotatable=1;deletable=1;editable=1;connectable=1;" vertex="1" parent="1">
                    <mxGeometry x="189" y="663" width="40" height="40" as="geometry"/>
                </mxCell>
                <mxCell id="222" value="&lt;font color=&quot;#000000&quot;&gt;3&lt;/font&gt;" style="ellipse;whiteSpace=wrap;html=1;aspect=fixed;fillColor=#f9f7ed;strokeColor=#36393d;movable=1;resizable=1;rotatable=1;deletable=1;editable=1;connectable=1;" vertex="1" parent="1">
                    <mxGeometry x="232" y="663" width="40" height="40" as="geometry"/>
                </mxCell>
                <mxCell id="223" value="&lt;p style=&quot;line-height: 100%;&quot;&gt;Sophiae&lt;/p&gt;" style="rounded=1;whiteSpace=wrap;html=1;strokeColor=#000000;fontColor=#000000;fillColor=#FFFFFF;verticalAlign=top;spacingTop=-10;movable=1;resizable=1;rotatable=1;deletable=1;editable=1;connectable=1;" vertex="1" parent="1">
                    <mxGeometry x="275" y="639" width="90" height="70" as="geometry"/>
                </mxCell>
                <mxCell id="224" value="&lt;font color=&quot;#000000&quot;&gt;4&lt;/font&gt;" style="ellipse;whiteSpace=wrap;html=1;aspect=fixed;fillColor=#f9f7ed;strokeColor=#36393d;movable=1;resizable=1;rotatable=1;deletable=1;editable=1;connectable=1;" vertex="1" parent="1">
                    <mxGeometry x="278" y="663" width="40" height="40" as="geometry"/>
                </mxCell>
                <mxCell id="225" value="&lt;font color=&quot;#000000&quot;&gt;5&lt;/font&gt;" style="ellipse;whiteSpace=wrap;html=1;aspect=fixed;fillColor=#f9f7ed;strokeColor=#36393d;movable=1;resizable=1;rotatable=1;deletable=1;editable=1;connectable=1;" vertex="1" parent="1">
                    <mxGeometry x="321" y="663" width="40" height="40" as="geometry"/>
                </mxCell>
                <mxCell id="226" value="&lt;p style=&quot;line-height: 100%;&quot;&gt;Income&lt;/p&gt;&lt;p style=&quot;line-height: 100%;&quot;&gt;&lt;br&gt;&lt;/p&gt;" style="rounded=1;whiteSpace=wrap;html=1;strokeColor=#000000;fontColor=#000000;fillColor=#FFFFFF;verticalAlign=top;spacingTop=-10;movable=1;resizable=1;rotatable=1;deletable=1;editable=1;connectable=1;" vertex="1" parent="1">
                    <mxGeometry x="385" y="639" width="170" height="70" as="geometry"/>
                </mxCell>
                <mxCell id="227" value="&lt;font color=&quot;#000000&quot;&gt;3&lt;/font&gt;" style="rhombus;whiteSpace=wrap;html=1;fillColor=#f9f7ed;strokeColor=#36393d;movable=1;resizable=1;rotatable=1;deletable=1;editable=1;connectable=1;" vertex="1" parent="1">
                    <mxGeometry x="390" y="662" width="40" height="40" as="geometry"/>
                </mxCell>
                <mxCell id="228" value="&lt;font color=&quot;#000000&quot;&gt;5&lt;/font&gt;" style="rhombus;whiteSpace=wrap;html=1;fillColor=#f9f7ed;strokeColor=#36393d;movable=1;resizable=1;rotatable=1;deletable=1;editable=1;connectable=1;" vertex="1" parent="1">
                    <mxGeometry x="430" y="662" width="40" height="40" as="geometry"/>
                </mxCell>
                <mxCell id="229" value="&lt;font color=&quot;#000000&quot;&gt;7&lt;/font&gt;" style="rhombus;whiteSpace=wrap;html=1;fillColor=#f9f7ed;strokeColor=#36393d;movable=1;resizable=1;rotatable=1;deletable=1;editable=1;connectable=1;" vertex="1" parent="1">
                    <mxGeometry x="470" y="662" width="40" height="40" as="geometry"/>
                </mxCell>
                <mxCell id="230" value="&lt;font color=&quot;#000000&quot;&gt;E&lt;/font&gt;" style="rhombus;whiteSpace=wrap;html=1;fillColor=#f9f7ed;strokeColor=#36393d;movable=1;resizable=1;rotatable=1;deletable=1;editable=1;connectable=1;" vertex="1" parent="1">
                    <mxGeometry x="510" y="662" width="40" height="40" as="geometry"/>
                </mxCell>
                <mxCell id="231" value="" style="ellipse;whiteSpace=wrap;html=1;aspect=fixed;strokeColor=#000000;fontColor=#000000;fillColor=#858585;movable=1;resizable=1;rotatable=1;deletable=1;editable=1;connectable=1;" vertex="1" parent="1">
                    <mxGeometry x="227" y="493" width="66" height="66" as="geometry"/>
                </mxCell>
                <mxCell id="232" value="&lt;p style=&quot;line-height: 100%;&quot;&gt;Actiones&lt;/p&gt;" style="rounded=1;whiteSpace=wrap;html=1;strokeColor=#000000;fontColor=#000000;fillColor=#FFFFFF;verticalAlign=top;spacingTop=-10;movable=1;resizable=1;rotatable=1;deletable=1;editable=1;connectable=1;" vertex="1" parent="1">
                    <mxGeometry x="305" y="488" width="250" height="70" as="geometry"/>
                </mxCell>
                <mxCell id="233" value="&lt;p style=&quot;line-height: 100%;&quot;&gt;&lt;font color=&quot;#050505&quot;&gt;2&lt;/font&gt;&lt;/p&gt;" style="rhombus;whiteSpace=wrap;html=1;fillColor=#f9f7ed;strokeColor=#36393d;movable=1;resizable=1;rotatable=1;deletable=1;editable=1;connectable=1;" vertex="1" parent="1">
                    <mxGeometry x="310" y="509" width="40" height="40" as="geometry"/>
                </mxCell>
                <mxCell id="234" value="&lt;font color=&quot;#000000&quot;&gt;3&lt;/font&gt;" style="rhombus;whiteSpace=wrap;html=1;fillColor=#f9f7ed;strokeColor=#36393d;movable=1;resizable=1;rotatable=1;deletable=1;editable=1;connectable=1;" vertex="1" parent="1">
                    <mxGeometry x="350" y="509" width="40" height="40" as="geometry"/>
                </mxCell>
                <mxCell id="235" value="&lt;font color=&quot;#000000&quot;&gt;3&lt;/font&gt;" style="rhombus;whiteSpace=wrap;html=1;fillColor=#f9f7ed;strokeColor=#36393d;movable=1;resizable=1;rotatable=1;deletable=1;editable=1;connectable=1;" vertex="1" parent="1">
                    <mxGeometry x="390" y="509" width="40" height="40" as="geometry"/>
                </mxCell>
                <mxCell id="236" value="&lt;font color=&quot;#000000&quot;&gt;4&lt;/font&gt;" style="rhombus;whiteSpace=wrap;html=1;fillColor=#f9f7ed;strokeColor=#36393d;movable=1;resizable=1;rotatable=1;deletable=1;editable=1;connectable=1;" vertex="1" parent="1">
                    <mxGeometry x="430" y="509" width="40" height="40" as="geometry"/>
                </mxCell>
                <mxCell id="237" value="&lt;font color=&quot;#000000&quot;&gt;4&lt;/font&gt;" style="rhombus;whiteSpace=wrap;html=1;fillColor=#f9f7ed;strokeColor=#36393d;movable=1;resizable=1;rotatable=1;deletable=1;editable=1;connectable=1;" vertex="1" parent="1">
                    <mxGeometry x="470" y="509" width="40" height="40" as="geometry"/>
                </mxCell>
                <mxCell id="238" value="&lt;font color=&quot;#000000&quot;&gt;5&lt;/font&gt;" style="rhombus;whiteSpace=wrap;html=1;fillColor=#f9f7ed;strokeColor=#36393d;movable=1;resizable=1;rotatable=1;deletable=1;editable=1;connectable=1;" vertex="1" parent="1">
                    <mxGeometry x="510" y="509" width="40" height="40" as="geometry"/>
                </mxCell>
                <mxCell id="239" value="&lt;p style=&quot;line-height: 100%;&quot;&gt;Keys&lt;/p&gt;" style="rounded=1;whiteSpace=wrap;html=1;strokeColor=#000000;fontColor=#000000;fillColor=#FFFFFF;verticalAlign=top;spacingTop=-10;movable=1;resizable=1;rotatable=1;deletable=1;editable=1;connectable=1;" vertex="1" parent="1">
                    <mxGeometry x="5" y="486" width="210" height="70" as="geometry"/>
                </mxCell>
                <mxCell id="240" value="&lt;p style=&quot;line-height: 100%;&quot;&gt;&lt;font color=&quot;#050505&quot;&gt;1&lt;/font&gt;&lt;/p&gt;" style="rhombus;whiteSpace=wrap;html=1;fillColor=#f9f7ed;strokeColor=#36393d;movable=1;resizable=1;rotatable=1;deletable=1;editable=1;connectable=1;" vertex="1" parent="1">
                    <mxGeometry x="10" y="509" width="40" height="40" as="geometry"/>
                </mxCell>
                <mxCell id="241" value="&lt;font color=&quot;#000000&quot;&gt;2&lt;/font&gt;" style="rhombus;whiteSpace=wrap;html=1;fillColor=#f9f7ed;strokeColor=#36393d;movable=1;resizable=1;rotatable=1;deletable=1;editable=1;connectable=1;" vertex="1" parent="1">
                    <mxGeometry x="50" y="509" width="40" height="40" as="geometry"/>
                </mxCell>
                <mxCell id="242" value="&lt;font color=&quot;#000000&quot;&gt;2&lt;/font&gt;" style="rhombus;whiteSpace=wrap;html=1;fillColor=#f9f7ed;strokeColor=#36393d;movable=1;resizable=1;rotatable=1;deletable=1;editable=1;connectable=1;" vertex="1" parent="1">
                    <mxGeometry x="90" y="509" width="40" height="40" as="geometry"/>
                </mxCell>
                <mxCell id="243" value="&lt;font color=&quot;#000000&quot;&gt;3&lt;/font&gt;" style="rhombus;whiteSpace=wrap;html=1;fillColor=#f9f7ed;strokeColor=#36393d;movable=1;resizable=1;rotatable=1;deletable=1;editable=1;connectable=1;" vertex="1" parent="1">
                    <mxGeometry x="130" y="509" width="40" height="40" as="geometry"/>
                </mxCell>
                <mxCell id="244" value="&lt;font color=&quot;#000000&quot;&gt;4&lt;/font&gt;" style="rhombus;whiteSpace=wrap;html=1;fillColor=#f9f7ed;strokeColor=#36393d;movable=1;resizable=1;rotatable=1;deletable=1;editable=1;connectable=1;" vertex="1" parent="1">
                    <mxGeometry x="170" y="509" width="40" height="40" as="geometry"/>
                </mxCell>
                <mxCell id="245" value="&lt;p style=&quot;line-height: 100%;&quot;&gt;&lt;font style=&quot;font-size: 16px;&quot;&gt;General Stock:&lt;/font&gt;&lt;/p&gt;" style="rounded=1;whiteSpace=wrap;html=1;strokeColor=#000000;fontColor=#000000;fillColor=#FFFFFF;verticalAlign=top;spacingTop=0;align=left;spacingRight=0;spacingLeft=18;movable=1;resizable=1;rotatable=1;deletable=1;editable=1;connectable=1;" vertex="1" parent="1">
                    <mxGeometry x="5" y="574" width="210" height="50" as="geometry"/>
                </mxCell>
                <mxCell id="246" value="&lt;p style=&quot;line-height: 100%;&quot;&gt;&lt;font style=&quot;font-size: 16px;&quot;&gt;Personal Supply:&amp;nbsp;&lt;/font&gt;&lt;/p&gt;" style="rounded=1;whiteSpace=wrap;html=1;strokeColor=#000000;fontColor=#000000;fillColor=#FFFFFF;verticalAlign=top;spacingTop=0;align=left;spacingRight=0;spacingLeft=18;movable=1;resizable=1;rotatable=1;deletable=1;editable=1;connectable=1;" vertex="1" parent="1">
                    <mxGeometry x="345" y="574" width="210" height="50" as="geometry"/>
                </mxCell>
                <mxCell id="280" value="&lt;p style=&quot;line-height: 100%;&quot;&gt;Privilegium&lt;/p&gt;" style="rounded=1;whiteSpace=wrap;html=1;strokeColor=#000000;fontColor=#000000;fillColor=#FFFFFF;verticalAlign=top;spacingTop=-10;movable=1;resizable=1;rotatable=1;deletable=1;editable=1;connectable=1;" vertex="1" parent="1">
                    <mxGeometry x="5" y="881.5" width="170" height="70" as="geometry"/>
                </mxCell>
                <mxCell id="281" value="" style="whiteSpace=wrap;html=1;aspect=fixed;fillColor=#f9f7ed;strokeColor=#000000;movable=1;resizable=1;rotatable=1;deletable=1;editable=1;connectable=1;" vertex="1" parent="1">
                    <mxGeometry x="15" y="911.5" width="30" height="30" as="geometry"/>
                </mxCell>
                <mxCell id="282" value="" style="whiteSpace=wrap;html=1;aspect=fixed;fillColor=#ffcd28;strokeColor=#000000;gradientColor=#ffa500;movable=1;resizable=1;rotatable=1;deletable=1;editable=1;connectable=1;" vertex="1" parent="1">
                    <mxGeometry x="55" y="911.5" width="30" height="30" as="geometry"/>
                </mxCell>
                <mxCell id="283" value="" style="whiteSpace=wrap;html=1;aspect=fixed;fillColor=#e6d0de;strokeColor=#000000;gradientColor=#d5739d;movable=1;resizable=1;rotatable=1;deletable=1;editable=1;connectable=1;" vertex="1" parent="1">
                    <mxGeometry x="95" y="911.5" width="30" height="30" as="geometry"/>
                </mxCell>
                <mxCell id="284" value="" style="whiteSpace=wrap;html=1;aspect=fixed;rotation=90;strokeColor=#000000;movable=1;resizable=1;rotatable=1;deletable=1;editable=1;connectable=1;" vertex="1" parent="1">
                    <mxGeometry x="135" y="911.5" width="30" height="30" as="geometry"/>
                </mxCell>
                <mxCell id="285" value="" style="ellipse;whiteSpace=wrap;html=1;aspect=fixed;strokeColor=#000000;fontColor=#000000;fillColor=#858585;movable=1;resizable=1;rotatable=1;deletable=1;editable=1;connectable=1;" vertex="1" parent="1">
                    <mxGeometry x="220" y="723.5" width="80" height="80" as="geometry"/>
                </mxCell>
                <mxCell id="286" value="&lt;p style=&quot;line-height: 100%;&quot;&gt;Liber&lt;/p&gt;" style="rounded=1;whiteSpace=wrap;html=1;strokeColor=#000000;fontColor=#000000;fillColor=#FFFFFF;verticalAlign=top;spacingTop=-10;movable=1;resizable=1;rotatable=1;deletable=1;editable=1;connectable=1;" vertex="1" parent="1">
                    <mxGeometry x="185" y="881.5" width="90" height="70" as="geometry"/>
                </mxCell>
                <mxCell id="287" value="&lt;font color=&quot;#000000&quot;&gt;2&lt;/font&gt;" style="ellipse;whiteSpace=wrap;html=1;aspect=fixed;fillColor=#f9f7ed;strokeColor=#36393d;movable=1;resizable=1;rotatable=1;deletable=1;editable=1;connectable=1;" vertex="1" parent="1">
                    <mxGeometry x="189" y="905.5" width="40" height="40" as="geometry"/>
                </mxCell>
                <mxCell id="288" value="&lt;font color=&quot;#000000&quot;&gt;3&lt;/font&gt;" style="ellipse;whiteSpace=wrap;html=1;aspect=fixed;fillColor=#f9f7ed;strokeColor=#36393d;movable=1;resizable=1;rotatable=1;deletable=1;editable=1;connectable=1;" vertex="1" parent="1">
                    <mxGeometry x="232" y="905.5" width="40" height="40" as="geometry"/>
                </mxCell>
                <mxCell id="289" value="&lt;p style=&quot;line-height: 100%;&quot;&gt;Sophiae&lt;/p&gt;" style="rounded=1;whiteSpace=wrap;html=1;strokeColor=#000000;fontColor=#000000;fillColor=#FFFFFF;verticalAlign=top;spacingTop=-10;movable=1;resizable=1;rotatable=1;deletable=1;editable=1;connectable=1;" vertex="1" parent="1">
                    <mxGeometry x="275" y="881.5" width="90" height="70" as="geometry"/>
                </mxCell>
                <mxCell id="290" value="&lt;font color=&quot;#000000&quot;&gt;4&lt;/font&gt;" style="ellipse;whiteSpace=wrap;html=1;aspect=fixed;fillColor=#f9f7ed;strokeColor=#36393d;movable=1;resizable=1;rotatable=1;deletable=1;editable=1;connectable=1;" vertex="1" parent="1">
                    <mxGeometry x="278" y="905.5" width="40" height="40" as="geometry"/>
                </mxCell>
                <mxCell id="291" value="&lt;font color=&quot;#000000&quot;&gt;5&lt;/font&gt;" style="ellipse;whiteSpace=wrap;html=1;aspect=fixed;fillColor=#f9f7ed;strokeColor=#36393d;movable=1;resizable=1;rotatable=1;deletable=1;editable=1;connectable=1;" vertex="1" parent="1">
                    <mxGeometry x="321" y="905.5" width="40" height="40" as="geometry"/>
                </mxCell>
                <mxCell id="292" value="&lt;p style=&quot;line-height: 100%;&quot;&gt;Income&lt;/p&gt;&lt;p style=&quot;line-height: 100%;&quot;&gt;&lt;br&gt;&lt;/p&gt;" style="rounded=1;whiteSpace=wrap;html=1;strokeColor=#000000;fontColor=#000000;fillColor=#FFFFFF;verticalAlign=top;spacingTop=-10;movable=1;resizable=1;rotatable=1;deletable=1;editable=1;connectable=1;" vertex="1" parent="1">
                    <mxGeometry x="385" y="881.5" width="170" height="70" as="geometry"/>
                </mxCell>
                <mxCell id="293" value="&lt;font color=&quot;#000000&quot;&gt;3&lt;/font&gt;" style="rhombus;whiteSpace=wrap;html=1;fillColor=#f9f7ed;strokeColor=#36393d;movable=1;resizable=1;rotatable=1;deletable=1;editable=1;connectable=1;" vertex="1" parent="1">
                    <mxGeometry x="390" y="904.5" width="40" height="40" as="geometry"/>
                </mxCell>
                <mxCell id="294" value="&lt;font color=&quot;#000000&quot;&gt;5&lt;/font&gt;" style="rhombus;whiteSpace=wrap;html=1;fillColor=#f9f7ed;strokeColor=#36393d;movable=1;resizable=1;rotatable=1;deletable=1;editable=1;connectable=1;" vertex="1" parent="1">
                    <mxGeometry x="430" y="904.5" width="40" height="40" as="geometry"/>
                </mxCell>
                <mxCell id="295" value="&lt;font color=&quot;#000000&quot;&gt;7&lt;/font&gt;" style="rhombus;whiteSpace=wrap;html=1;fillColor=#f9f7ed;strokeColor=#36393d;movable=1;resizable=1;rotatable=1;deletable=1;editable=1;connectable=1;" vertex="1" parent="1">
                    <mxGeometry x="470" y="904.5" width="40" height="40" as="geometry"/>
                </mxCell>
                <mxCell id="296" value="&lt;font color=&quot;#000000&quot;&gt;E&lt;/font&gt;" style="rhombus;whiteSpace=wrap;html=1;fillColor=#f9f7ed;strokeColor=#36393d;movable=1;resizable=1;rotatable=1;deletable=1;editable=1;connectable=1;" vertex="1" parent="1">
                    <mxGeometry x="510" y="904.5" width="40" height="40" as="geometry"/>
                </mxCell>
                <mxCell id="297" value="" style="ellipse;whiteSpace=wrap;html=1;aspect=fixed;strokeColor=#000000;fontColor=#000000;fillColor=#858585;movable=1;resizable=1;rotatable=1;deletable=1;editable=1;connectable=1;" vertex="1" parent="1">
                    <mxGeometry x="227" y="730.5" width="66" height="66" as="geometry"/>
                </mxCell>
                <mxCell id="298" value="&lt;p style=&quot;line-height: 100%;&quot;&gt;Actiones&lt;/p&gt;" style="rounded=1;whiteSpace=wrap;html=1;strokeColor=#000000;fontColor=#000000;fillColor=#FFFFFF;verticalAlign=top;spacingTop=-10;movable=1;resizable=1;rotatable=1;deletable=1;editable=1;connectable=1;" vertex="1" parent="1">
                    <mxGeometry x="305" y="730.5" width="250" height="70" as="geometry"/>
                </mxCell>
                <mxCell id="299" value="&lt;p style=&quot;line-height: 100%;&quot;&gt;&lt;font color=&quot;#050505&quot;&gt;2&lt;/font&gt;&lt;/p&gt;" style="rhombus;whiteSpace=wrap;html=1;fillColor=#f9f7ed;strokeColor=#36393d;movable=1;resizable=1;rotatable=1;deletable=1;editable=1;connectable=1;" vertex="1" parent="1">
                    <mxGeometry x="310" y="751.5" width="40" height="40" as="geometry"/>
                </mxCell>
                <mxCell id="300" value="&lt;font color=&quot;#000000&quot;&gt;3&lt;/font&gt;" style="rhombus;whiteSpace=wrap;html=1;fillColor=#f9f7ed;strokeColor=#36393d;movable=1;resizable=1;rotatable=1;deletable=1;editable=1;connectable=1;" vertex="1" parent="1">
                    <mxGeometry x="350" y="751.5" width="40" height="40" as="geometry"/>
                </mxCell>
                <mxCell id="301" value="&lt;font color=&quot;#000000&quot;&gt;3&lt;/font&gt;" style="rhombus;whiteSpace=wrap;html=1;fillColor=#f9f7ed;strokeColor=#36393d;movable=1;resizable=1;rotatable=1;deletable=1;editable=1;connectable=1;" vertex="1" parent="1">
                    <mxGeometry x="390" y="751.5" width="40" height="40" as="geometry"/>
                </mxCell>
                <mxCell id="302" value="&lt;font color=&quot;#000000&quot;&gt;4&lt;/font&gt;" style="rhombus;whiteSpace=wrap;html=1;fillColor=#f9f7ed;strokeColor=#36393d;movable=1;resizable=1;rotatable=1;deletable=1;editable=1;connectable=1;" vertex="1" parent="1">
                    <mxGeometry x="430" y="751.5" width="40" height="40" as="geometry"/>
                </mxCell>
                <mxCell id="303" value="&lt;font color=&quot;#000000&quot;&gt;4&lt;/font&gt;" style="rhombus;whiteSpace=wrap;html=1;fillColor=#f9f7ed;strokeColor=#36393d;movable=1;resizable=1;rotatable=1;deletable=1;editable=1;connectable=1;" vertex="1" parent="1">
                    <mxGeometry x="470" y="751.5" width="40" height="40" as="geometry"/>
                </mxCell>
                <mxCell id="304" value="&lt;font color=&quot;#000000&quot;&gt;5&lt;/font&gt;" style="rhombus;whiteSpace=wrap;html=1;fillColor=#f9f7ed;strokeColor=#36393d;movable=1;resizable=1;rotatable=1;deletable=1;editable=1;connectable=1;" vertex="1" parent="1">
                    <mxGeometry x="510" y="751.5" width="40" height="40" as="geometry"/>
                </mxCell>
                <mxCell id="305" value="&lt;p style=&quot;line-height: 100%;&quot;&gt;Keys&lt;/p&gt;" style="rounded=1;whiteSpace=wrap;html=1;strokeColor=#000000;fontColor=#000000;fillColor=#FFFFFF;verticalAlign=top;spacingTop=-10;movable=1;resizable=1;rotatable=1;deletable=1;editable=1;connectable=1;" vertex="1" parent="1">
                    <mxGeometry x="5" y="728.5" width="210" height="70" as="geometry"/>
                </mxCell>
                <mxCell id="306" value="&lt;p style=&quot;line-height: 100%;&quot;&gt;&lt;font color=&quot;#050505&quot;&gt;1&lt;/font&gt;&lt;/p&gt;" style="rhombus;whiteSpace=wrap;html=1;fillColor=#f9f7ed;strokeColor=#36393d;movable=1;resizable=1;rotatable=1;deletable=1;editable=1;connectable=1;" vertex="1" parent="1">
                    <mxGeometry x="10" y="751.5" width="40" height="40" as="geometry"/>
                </mxCell>
                <mxCell id="307" value="&lt;font color=&quot;#000000&quot;&gt;2&lt;/font&gt;" style="rhombus;whiteSpace=wrap;html=1;fillColor=#f9f7ed;strokeColor=#36393d;movable=1;resizable=1;rotatable=1;deletable=1;editable=1;connectable=1;" vertex="1" parent="1">
                    <mxGeometry x="50" y="751.5" width="40" height="40" as="geometry"/>
                </mxCell>
                <mxCell id="308" value="&lt;font color=&quot;#000000&quot;&gt;2&lt;/font&gt;" style="rhombus;whiteSpace=wrap;html=1;fillColor=#f9f7ed;strokeColor=#36393d;movable=1;resizable=1;rotatable=1;deletable=1;editable=1;connectable=1;" vertex="1" parent="1">
                    <mxGeometry x="90" y="751.5" width="40" height="40" as="geometry"/>
                </mxCell>
                <mxCell id="309" value="&lt;font color=&quot;#000000&quot;&gt;3&lt;/font&gt;" style="rhombus;whiteSpace=wrap;html=1;fillColor=#f9f7ed;strokeColor=#36393d;movable=1;resizable=1;rotatable=1;deletable=1;editable=1;connectable=1;" vertex="1" parent="1">
                    <mxGeometry x="130" y="751.5" width="40" height="40" as="geometry"/>
                </mxCell>
                <mxCell id="310" value="&lt;font color=&quot;#000000&quot;&gt;4&lt;/font&gt;" style="rhombus;whiteSpace=wrap;html=1;fillColor=#f9f7ed;strokeColor=#36393d;movable=1;resizable=1;rotatable=1;deletable=1;editable=1;connectable=1;" vertex="1" parent="1">
                    <mxGeometry x="170" y="751.5" width="40" height="40" as="geometry"/>
                </mxCell>
                <mxCell id="311" value="&lt;p style=&quot;line-height: 100%;&quot;&gt;&lt;font style=&quot;font-size: 16px;&quot;&gt;General Stock:&lt;/font&gt;&lt;/p&gt;" style="rounded=1;whiteSpace=wrap;html=1;strokeColor=#000000;fontColor=#000000;fillColor=#FFFFFF;verticalAlign=top;spacingTop=0;align=left;spacingRight=0;spacingLeft=18;movable=1;resizable=1;rotatable=1;deletable=1;editable=1;connectable=1;" vertex="1" parent="1">
                    <mxGeometry x="5" y="816.5" width="210" height="50" as="geometry"/>
                </mxCell>
                <mxCell id="312" value="&lt;p style=&quot;line-height: 100%;&quot;&gt;&lt;font style=&quot;font-size: 16px;&quot;&gt;Personal Supply:&amp;nbsp;&lt;/font&gt;&lt;/p&gt;" style="rounded=1;whiteSpace=wrap;html=1;strokeColor=#000000;fontColor=#000000;fillColor=#FFFFFF;verticalAlign=top;spacingTop=0;align=left;spacingRight=0;spacingLeft=18;movable=1;resizable=1;rotatable=1;deletable=1;editable=1;connectable=1;" vertex="1" parent="1">
                    <mxGeometry x="345" y="816.5" width="210" height="50" as="geometry"/>
                </mxCell>
                <mxCell id="314" value="" style="group;movable=1;resizable=1;rotatable=1;deletable=1;editable=1;connectable=1;" vertex="1" connectable="0" parent="1">
                    <mxGeometry x="6" y="962" width="550" height="228" as="geometry"/>
                </mxCell>
                <mxCell id="247" value="&lt;p style=&quot;line-height: 100%;&quot;&gt;Privilegium&lt;/p&gt;" style="rounded=1;whiteSpace=wrap;html=1;strokeColor=#000000;fontColor=#000000;fillColor=#FFFFFF;verticalAlign=top;spacingTop=-10;movable=1;resizable=1;rotatable=1;deletable=1;editable=1;connectable=1;" vertex="1" parent="314">
                    <mxGeometry y="158" width="170" height="70" as="geometry"/>
                </mxCell>
                <mxCell id="248" value="" style="whiteSpace=wrap;html=1;aspect=fixed;fillColor=#f9f7ed;strokeColor=#000000;movable=1;resizable=1;rotatable=1;deletable=1;editable=1;connectable=1;" vertex="1" parent="314">
                    <mxGeometry x="10" y="188" width="30" height="30" as="geometry"/>
                </mxCell>
                <mxCell id="249" value="" style="whiteSpace=wrap;html=1;aspect=fixed;fillColor=#ffcd28;strokeColor=#000000;gradientColor=#ffa500;movable=1;resizable=1;rotatable=1;deletable=1;editable=1;connectable=1;" vertex="1" parent="314">
                    <mxGeometry x="50" y="188" width="30" height="30" as="geometry"/>
                </mxCell>
                <mxCell id="250" value="" style="whiteSpace=wrap;html=1;aspect=fixed;fillColor=#e6d0de;strokeColor=#000000;gradientColor=#d5739d;movable=1;resizable=1;rotatable=1;deletable=1;editable=1;connectable=1;" vertex="1" parent="314">
                    <mxGeometry x="90" y="188" width="30" height="30" as="geometry"/>
                </mxCell>
                <mxCell id="251" value="" style="whiteSpace=wrap;html=1;aspect=fixed;rotation=90;strokeColor=#000000;movable=1;resizable=1;rotatable=1;deletable=1;editable=1;connectable=1;" vertex="1" parent="314">
                    <mxGeometry x="130" y="188" width="30" height="30" as="geometry"/>
                </mxCell>
                <mxCell id="252" value="" style="ellipse;whiteSpace=wrap;html=1;aspect=fixed;strokeColor=#000000;fontColor=#000000;fillColor=#858585;movable=1;resizable=1;rotatable=1;deletable=1;editable=1;connectable=1;" vertex="1" parent="314">
                    <mxGeometry x="215" width="80" height="80" as="geometry"/>
                </mxCell>
                <mxCell id="253" value="&lt;p style=&quot;line-height: 100%;&quot;&gt;Liber&lt;/p&gt;" style="rounded=1;whiteSpace=wrap;html=1;strokeColor=#000000;fontColor=#000000;fillColor=#FFFFFF;verticalAlign=top;spacingTop=-10;movable=1;resizable=1;rotatable=1;deletable=1;editable=1;connectable=1;" vertex="1" parent="314">
                    <mxGeometry x="180" y="158" width="90" height="70" as="geometry"/>
                </mxCell>
                <mxCell id="254" value="&lt;font color=&quot;#000000&quot;&gt;2&lt;/font&gt;" style="ellipse;whiteSpace=wrap;html=1;aspect=fixed;fillColor=#f9f7ed;strokeColor=#36393d;movable=1;resizable=1;rotatable=1;deletable=1;editable=1;connectable=1;" vertex="1" parent="314">
                    <mxGeometry x="184" y="182" width="40" height="40" as="geometry"/>
                </mxCell>
                <mxCell id="255" value="&lt;font color=&quot;#000000&quot;&gt;3&lt;/font&gt;" style="ellipse;whiteSpace=wrap;html=1;aspect=fixed;fillColor=#f9f7ed;strokeColor=#36393d;movable=1;resizable=1;rotatable=1;deletable=1;editable=1;connectable=1;" vertex="1" parent="314">
                    <mxGeometry x="227" y="182" width="40" height="40" as="geometry"/>
                </mxCell>
                <mxCell id="256" value="&lt;p style=&quot;line-height: 100%;&quot;&gt;Sophiae&lt;/p&gt;" style="rounded=1;whiteSpace=wrap;html=1;strokeColor=#000000;fontColor=#000000;fillColor=#FFFFFF;verticalAlign=top;spacingTop=-10;movable=1;resizable=1;rotatable=1;deletable=1;editable=1;connectable=1;" vertex="1" parent="314">
                    <mxGeometry x="270" y="158" width="90" height="70" as="geometry"/>
                </mxCell>
                <mxCell id="257" value="&lt;font color=&quot;#000000&quot;&gt;4&lt;/font&gt;" style="ellipse;whiteSpace=wrap;html=1;aspect=fixed;fillColor=#f9f7ed;strokeColor=#36393d;movable=1;resizable=1;rotatable=1;deletable=1;editable=1;connectable=1;" vertex="1" parent="314">
                    <mxGeometry x="273" y="182" width="40" height="40" as="geometry"/>
                </mxCell>
                <mxCell id="258" value="&lt;font color=&quot;#000000&quot;&gt;5&lt;/font&gt;" style="ellipse;whiteSpace=wrap;html=1;aspect=fixed;fillColor=#f9f7ed;strokeColor=#36393d;movable=1;resizable=1;rotatable=1;deletable=1;editable=1;connectable=1;" vertex="1" parent="314">
                    <mxGeometry x="316" y="182" width="40" height="40" as="geometry"/>
                </mxCell>
                <mxCell id="259" value="&lt;p style=&quot;line-height: 100%;&quot;&gt;Income&lt;/p&gt;&lt;p style=&quot;line-height: 100%;&quot;&gt;&lt;br&gt;&lt;/p&gt;" style="rounded=1;whiteSpace=wrap;html=1;strokeColor=#000000;fontColor=#000000;fillColor=#FFFFFF;verticalAlign=top;spacingTop=-10;movable=1;resizable=1;rotatable=1;deletable=1;editable=1;connectable=1;" vertex="1" parent="314">
                    <mxGeometry x="380" y="158" width="170" height="70" as="geometry"/>
                </mxCell>
                <mxCell id="260" value="&lt;font color=&quot;#000000&quot;&gt;3&lt;/font&gt;" style="rhombus;whiteSpace=wrap;html=1;fillColor=#f9f7ed;strokeColor=#36393d;movable=1;resizable=1;rotatable=1;deletable=1;editable=1;connectable=1;" vertex="1" parent="314">
                    <mxGeometry x="385" y="181" width="40" height="40" as="geometry"/>
                </mxCell>
                <mxCell id="261" value="&lt;font color=&quot;#000000&quot;&gt;5&lt;/font&gt;" style="rhombus;whiteSpace=wrap;html=1;fillColor=#f9f7ed;strokeColor=#36393d;movable=1;resizable=1;rotatable=1;deletable=1;editable=1;connectable=1;" vertex="1" parent="314">
                    <mxGeometry x="425" y="181" width="40" height="40" as="geometry"/>
                </mxCell>
                <mxCell id="262" value="&lt;font color=&quot;#000000&quot;&gt;7&lt;/font&gt;" style="rhombus;whiteSpace=wrap;html=1;fillColor=#f9f7ed;strokeColor=#36393d;movable=1;resizable=1;rotatable=1;deletable=1;editable=1;connectable=1;" vertex="1" parent="314">
                    <mxGeometry x="465" y="181" width="40" height="40" as="geometry"/>
                </mxCell>
                <mxCell id="263" value="&lt;font color=&quot;#000000&quot;&gt;E&lt;/font&gt;" style="rhombus;whiteSpace=wrap;html=1;fillColor=#f9f7ed;strokeColor=#36393d;movable=1;resizable=1;rotatable=1;deletable=1;editable=1;connectable=1;" vertex="1" parent="314">
                    <mxGeometry x="505" y="181" width="40" height="40" as="geometry"/>
                </mxCell>
                <mxCell id="264" value="" style="ellipse;whiteSpace=wrap;html=1;aspect=fixed;strokeColor=#000000;fontColor=#000000;fillColor=#858585;movable=1;resizable=1;rotatable=1;deletable=1;editable=1;connectable=1;" vertex="1" parent="314">
                    <mxGeometry x="222" y="7" width="66" height="66" as="geometry"/>
                </mxCell>
                <mxCell id="265" value="&lt;p style=&quot;line-height: 100%;&quot;&gt;Actiones&lt;/p&gt;" style="rounded=1;whiteSpace=wrap;html=1;strokeColor=#000000;fontColor=#000000;fillColor=#FFFFFF;verticalAlign=top;spacingTop=-10;movable=1;resizable=1;rotatable=1;deletable=1;editable=1;connectable=1;" vertex="1" parent="314">
                    <mxGeometry x="300" y="7" width="250" height="70" as="geometry"/>
                </mxCell>
                <mxCell id="266" value="&lt;p style=&quot;line-height: 100%;&quot;&gt;&lt;font color=&quot;#050505&quot;&gt;2&lt;/font&gt;&lt;/p&gt;" style="rhombus;whiteSpace=wrap;html=1;fillColor=#f9f7ed;strokeColor=#36393d;movable=1;resizable=1;rotatable=1;deletable=1;editable=1;connectable=1;" vertex="1" parent="314">
                    <mxGeometry x="305" y="28" width="40" height="40" as="geometry"/>
                </mxCell>
                <mxCell id="267" value="&lt;font color=&quot;#000000&quot;&gt;3&lt;/font&gt;" style="rhombus;whiteSpace=wrap;html=1;fillColor=#f9f7ed;strokeColor=#36393d;movable=1;resizable=1;rotatable=1;deletable=1;editable=1;connectable=1;" vertex="1" parent="314">
                    <mxGeometry x="345" y="28" width="40" height="40" as="geometry"/>
                </mxCell>
                <mxCell id="268" value="&lt;font color=&quot;#000000&quot;&gt;3&lt;/font&gt;" style="rhombus;whiteSpace=wrap;html=1;fillColor=#f9f7ed;strokeColor=#36393d;movable=1;resizable=1;rotatable=1;deletable=1;editable=1;connectable=1;" vertex="1" parent="314">
                    <mxGeometry x="385" y="28" width="40" height="40" as="geometry"/>
                </mxCell>
                <mxCell id="269" value="&lt;font color=&quot;#000000&quot;&gt;4&lt;/font&gt;" style="rhombus;whiteSpace=wrap;html=1;fillColor=#f9f7ed;strokeColor=#36393d;movable=1;resizable=1;rotatable=1;deletable=1;editable=1;connectable=1;" vertex="1" parent="314">
                    <mxGeometry x="425" y="28" width="40" height="40" as="geometry"/>
                </mxCell>
                <mxCell id="270" value="&lt;font color=&quot;#000000&quot;&gt;4&lt;/font&gt;" style="rhombus;whiteSpace=wrap;html=1;fillColor=#f9f7ed;strokeColor=#36393d;movable=1;resizable=1;rotatable=1;deletable=1;editable=1;connectable=1;" vertex="1" parent="314">
                    <mxGeometry x="465" y="28" width="40" height="40" as="geometry"/>
                </mxCell>
                <mxCell id="271" value="&lt;font color=&quot;#000000&quot;&gt;5&lt;/font&gt;" style="rhombus;whiteSpace=wrap;html=1;fillColor=#f9f7ed;strokeColor=#36393d;movable=1;resizable=1;rotatable=1;deletable=1;editable=1;connectable=1;" vertex="1" parent="314">
                    <mxGeometry x="505" y="28" width="40" height="40" as="geometry"/>
                </mxCell>
                <mxCell id="272" value="&lt;p style=&quot;line-height: 100%;&quot;&gt;Keys&lt;/p&gt;" style="rounded=1;whiteSpace=wrap;html=1;strokeColor=#000000;fontColor=#000000;fillColor=#FFFFFF;verticalAlign=top;spacingTop=-10;movable=1;resizable=1;rotatable=1;deletable=1;editable=1;connectable=1;" vertex="1" parent="314">
                    <mxGeometry y="5" width="210" height="70" as="geometry"/>
                </mxCell>
                <mxCell id="273" value="&lt;p style=&quot;line-height: 100%;&quot;&gt;&lt;font color=&quot;#050505&quot;&gt;1&lt;/font&gt;&lt;/p&gt;" style="rhombus;whiteSpace=wrap;html=1;fillColor=#f9f7ed;strokeColor=#36393d;movable=1;resizable=1;rotatable=1;deletable=1;editable=1;connectable=1;" vertex="1" parent="314">
                    <mxGeometry x="5" y="28" width="40" height="40" as="geometry"/>
                </mxCell>
                <mxCell id="274" value="&lt;font color=&quot;#000000&quot;&gt;2&lt;/font&gt;" style="rhombus;whiteSpace=wrap;html=1;fillColor=#f9f7ed;strokeColor=#36393d;movable=1;resizable=1;rotatable=1;deletable=1;editable=1;connectable=1;" vertex="1" parent="314">
                    <mxGeometry x="45" y="28" width="40" height="40" as="geometry"/>
                </mxCell>
                <mxCell id="275" value="&lt;font color=&quot;#000000&quot;&gt;2&lt;/font&gt;" style="rhombus;whiteSpace=wrap;html=1;fillColor=#f9f7ed;strokeColor=#36393d;movable=1;resizable=1;rotatable=1;deletable=1;editable=1;connectable=1;" vertex="1" parent="314">
                    <mxGeometry x="85" y="28" width="40" height="40" as="geometry"/>
                </mxCell>
                <mxCell id="276" value="&lt;font color=&quot;#000000&quot;&gt;3&lt;/font&gt;" style="rhombus;whiteSpace=wrap;html=1;fillColor=#f9f7ed;strokeColor=#36393d;movable=1;resizable=1;rotatable=1;deletable=1;editable=1;connectable=1;" vertex="1" parent="314">
                    <mxGeometry x="125" y="28" width="40" height="40" as="geometry"/>
                </mxCell>
                <mxCell id="277" value="&lt;font color=&quot;#000000&quot;&gt;4&lt;/font&gt;" style="rhombus;whiteSpace=wrap;html=1;fillColor=#f9f7ed;strokeColor=#36393d;movable=1;resizable=1;rotatable=1;deletable=1;editable=1;connectable=1;" vertex="1" parent="314">
                    <mxGeometry x="165" y="28" width="40" height="40" as="geometry"/>
                </mxCell>
                <mxCell id="278" value="&lt;p style=&quot;line-height: 100%;&quot;&gt;&lt;font style=&quot;font-size: 16px;&quot;&gt;General Stock:&lt;/font&gt;&lt;/p&gt;" style="rounded=1;whiteSpace=wrap;html=1;strokeColor=#000000;fontColor=#000000;fillColor=#FFFFFF;verticalAlign=top;spacingTop=0;align=left;spacingRight=0;spacingLeft=18;movable=1;resizable=1;rotatable=1;deletable=1;editable=1;connectable=1;" vertex="1" parent="314">
                    <mxGeometry y="93" width="210" height="50" as="geometry"/>
                </mxCell>
                <mxCell id="279" value="&lt;p style=&quot;line-height: 100%;&quot;&gt;&lt;font style=&quot;font-size: 16px;&quot;&gt;Personal Supply:&amp;nbsp;&lt;/font&gt;&lt;/p&gt;" style="rounded=1;whiteSpace=wrap;html=1;strokeColor=#000000;fontColor=#000000;fillColor=#FFFFFF;verticalAlign=top;spacingTop=0;align=left;spacingRight=0;spacingLeft=18;movable=1;resizable=1;rotatable=1;deletable=1;editable=1;connectable=1;" vertex="1" parent="314">
                    <mxGeometry x="340" y="93" width="210" height="50" as="geometry"/>
                </mxCell>
            </root>
        </mxGraphModel>
    </diagram>
</mxfile>